<mxfile host="Electron" modified="2024-04-26T07:16:47.054Z" agent="Mozilla/5.0 (Windows NT 10.0; Win64; x64) AppleWebKit/537.36 (KHTML, like Gecko) draw.io/24.2.5 Chrome/120.0.6099.109 Electron/28.1.0 Safari/537.36" etag="uW8z4nRD_AlclpDoXI1q" version="24.2.5" type="device">
  <diagram name="Page-1" id="Me5RSBE2r3nm0kw_95Sj">
    <mxGraphModel dx="924" dy="504" grid="1" gridSize="10" guides="1" tooltips="1" connect="1" arrows="1" fold="1" page="1" pageScale="1" pageWidth="827" pageHeight="1169" math="0" shadow="0">
      <root>
        <mxCell id="0" />
        <mxCell id="1" parent="0" />
        <mxCell id="pZrvLZBO8hLR1AurmgYi-1" value="DISPENSE $2/&lt;div&gt;1 $0.5&lt;/div&gt;&lt;div&gt;(100)&lt;/div&gt;" style="ellipse;whiteSpace=wrap;html=1;aspect=fixed;" vertex="1" parent="1">
          <mxGeometry x="600" y="240" width="80" height="80" as="geometry" />
        </mxCell>
        <mxCell id="pZrvLZBO8hLR1AurmgYi-2" value="DISPENSE $1.5/&lt;div&gt;1 $0&lt;/div&gt;&lt;div&gt;(011)&lt;/div&gt;" style="ellipse;whiteSpace=wrap;html=1;aspect=fixed;" vertex="1" parent="1">
          <mxGeometry x="480" y="240" width="80" height="80" as="geometry" />
        </mxCell>
        <mxCell id="pZrvLZBO8hLR1AurmgYi-9" style="edgeStyle=orthogonalEdgeStyle;rounded=0;orthogonalLoop=1;jettySize=auto;html=1;exitX=1;exitY=0.5;exitDx=0;exitDy=0;entryX=0;entryY=0.5;entryDx=0;entryDy=0;" edge="1" parent="1" source="pZrvLZBO8hLR1AurmgYi-3" target="pZrvLZBO8hLR1AurmgYi-2">
          <mxGeometry relative="1" as="geometry" />
        </mxCell>
        <mxCell id="pZrvLZBO8hLR1AurmgYi-3" value="HOLD $1/&lt;div&gt;0 $0&lt;/div&gt;&lt;div&gt;(010)&lt;/div&gt;" style="ellipse;whiteSpace=wrap;html=1;aspect=fixed;" vertex="1" parent="1">
          <mxGeometry x="360" y="240" width="80" height="80" as="geometry" />
        </mxCell>
        <mxCell id="pZrvLZBO8hLR1AurmgYi-8" style="edgeStyle=orthogonalEdgeStyle;rounded=0;orthogonalLoop=1;jettySize=auto;html=1;exitX=1;exitY=0.5;exitDx=0;exitDy=0;entryX=0;entryY=0.5;entryDx=0;entryDy=0;" edge="1" parent="1" source="pZrvLZBO8hLR1AurmgYi-4" target="pZrvLZBO8hLR1AurmgYi-3">
          <mxGeometry relative="1" as="geometry" />
        </mxCell>
        <mxCell id="pZrvLZBO8hLR1AurmgYi-4" value="HOLD $0.5/&lt;div&gt;0 $0&lt;div&gt;(001)&lt;/div&gt;&lt;/div&gt;" style="ellipse;whiteSpace=wrap;html=1;aspect=fixed;" vertex="1" parent="1">
          <mxGeometry x="240" y="240" width="80" height="80" as="geometry" />
        </mxCell>
        <mxCell id="pZrvLZBO8hLR1AurmgYi-7" style="edgeStyle=orthogonalEdgeStyle;rounded=0;orthogonalLoop=1;jettySize=auto;html=1;exitX=1;exitY=0.5;exitDx=0;exitDy=0;entryX=0;entryY=0.5;entryDx=0;entryDy=0;" edge="1" parent="1" source="pZrvLZBO8hLR1AurmgYi-5" target="pZrvLZBO8hLR1AurmgYi-4">
          <mxGeometry relative="1" as="geometry" />
        </mxCell>
        <mxCell id="pZrvLZBO8hLR1AurmgYi-5" value="IDLE/0 $0&lt;div&gt;(000)&lt;/div&gt;" style="ellipse;whiteSpace=wrap;html=1;aspect=fixed;" vertex="1" parent="1">
          <mxGeometry x="120" y="240" width="80" height="80" as="geometry" />
        </mxCell>
        <mxCell id="pZrvLZBO8hLR1AurmgYi-10" value="" style="curved=1;endArrow=classic;html=1;rounded=0;exitX=1;exitY=0;exitDx=0;exitDy=0;entryX=0;entryY=0;entryDx=0;entryDy=0;" edge="1" parent="1" source="pZrvLZBO8hLR1AurmgYi-5" target="pZrvLZBO8hLR1AurmgYi-3">
          <mxGeometry width="50" height="50" relative="1" as="geometry">
            <mxPoint x="146" y="160" as="sourcePoint" />
            <mxPoint x="276" y="60" as="targetPoint" />
            <Array as="points">
              <mxPoint x="240" y="220" />
              <mxPoint x="320" y="220" />
            </Array>
          </mxGeometry>
        </mxCell>
        <mxCell id="pZrvLZBO8hLR1AurmgYi-11" value="" style="curved=1;endArrow=classic;html=1;rounded=0;exitX=1;exitY=0;exitDx=0;exitDy=0;entryX=0;entryY=0;entryDx=0;entryDy=0;" edge="1" parent="1">
          <mxGeometry width="50" height="50" relative="1" as="geometry">
            <mxPoint x="428" y="252" as="sourcePoint" />
            <mxPoint x="612" y="252" as="targetPoint" />
            <Array as="points">
              <mxPoint x="480" y="220" />
              <mxPoint x="560" y="220" />
            </Array>
          </mxGeometry>
        </mxCell>
        <mxCell id="pZrvLZBO8hLR1AurmgYi-13" value="" style="curved=1;endArrow=classic;html=1;rounded=0;exitX=1;exitY=1;exitDx=0;exitDy=0;entryX=0;entryY=1;entryDx=0;entryDy=0;" edge="1" parent="1" source="pZrvLZBO8hLR1AurmgYi-4" target="pZrvLZBO8hLR1AurmgYi-2">
          <mxGeometry width="50" height="50" relative="1" as="geometry">
            <mxPoint x="308" y="402" as="sourcePoint" />
            <mxPoint x="492" y="402" as="targetPoint" />
            <Array as="points">
              <mxPoint x="360" y="340" />
              <mxPoint x="440" y="340" />
            </Array>
          </mxGeometry>
        </mxCell>
        <mxCell id="pZrvLZBO8hLR1AurmgYi-14" value="" style="curved=1;endArrow=classic;html=1;rounded=0;entryX=0.5;entryY=1;entryDx=0;entryDy=0;exitX=0.5;exitY=1;exitDx=0;exitDy=0;" edge="1" parent="1" source="pZrvLZBO8hLR1AurmgYi-2" target="pZrvLZBO8hLR1AurmgYi-5">
          <mxGeometry width="50" height="50" relative="1" as="geometry">
            <mxPoint x="375" y="460" as="sourcePoint" />
            <mxPoint x="425" y="410" as="targetPoint" />
            <Array as="points">
              <mxPoint x="400" y="370" />
              <mxPoint x="280" y="370" />
            </Array>
          </mxGeometry>
        </mxCell>
        <mxCell id="pZrvLZBO8hLR1AurmgYi-15" value="" style="curved=1;endArrow=classic;html=1;rounded=0;exitX=0.5;exitY=0;exitDx=0;exitDy=0;entryX=0.5;entryY=0;entryDx=0;entryDy=0;" edge="1" parent="1" source="pZrvLZBO8hLR1AurmgYi-1" target="pZrvLZBO8hLR1AurmgYi-5">
          <mxGeometry width="50" height="50" relative="1" as="geometry">
            <mxPoint x="380" y="120" as="sourcePoint" />
            <mxPoint x="430" y="70" as="targetPoint" />
            <Array as="points">
              <mxPoint x="480" y="170" />
              <mxPoint x="320" y="170" />
            </Array>
          </mxGeometry>
        </mxCell>
        <mxCell id="pZrvLZBO8hLR1AurmgYi-17" value="$0.5" style="text;html=1;align=center;verticalAlign=middle;whiteSpace=wrap;rounded=0;" vertex="1" parent="1">
          <mxGeometry x="190" y="250" width="60" height="30" as="geometry" />
        </mxCell>
        <mxCell id="pZrvLZBO8hLR1AurmgYi-19" value="$0.5" style="text;html=1;align=center;verticalAlign=middle;whiteSpace=wrap;rounded=0;" vertex="1" parent="1">
          <mxGeometry x="310" y="250" width="60" height="30" as="geometry" />
        </mxCell>
        <mxCell id="pZrvLZBO8hLR1AurmgYi-20" value="$0.5" style="text;html=1;align=center;verticalAlign=middle;whiteSpace=wrap;rounded=0;" vertex="1" parent="1">
          <mxGeometry x="430" y="250" width="60" height="30" as="geometry" />
        </mxCell>
        <mxCell id="pZrvLZBO8hLR1AurmgYi-21" value="$1" style="text;html=1;align=center;verticalAlign=middle;whiteSpace=wrap;rounded=0;" vertex="1" parent="1">
          <mxGeometry x="250" y="195" width="60" height="30" as="geometry" />
        </mxCell>
        <mxCell id="pZrvLZBO8hLR1AurmgYi-24" value="$1" style="text;html=1;align=center;verticalAlign=middle;whiteSpace=wrap;rounded=0;" vertex="1" parent="1">
          <mxGeometry x="490" y="195" width="60" height="30" as="geometry" />
        </mxCell>
        <mxCell id="pZrvLZBO8hLR1AurmgYi-25" value="$1" style="text;html=1;align=center;verticalAlign=middle;whiteSpace=wrap;rounded=0;" vertex="1" parent="1">
          <mxGeometry x="371" y="316" width="60" height="30" as="geometry" />
        </mxCell>
      </root>
    </mxGraphModel>
  </diagram>
</mxfile>
